<svg xmlns="http://www.w3.org/2000/svg" version="1.1" xmlns:xlink="http://www.w3.org/1999/xlink" xmlns:svgjs="http://svgjs.dev/svgjs" viewBox="0 0 2400 800" opacity="1"><defs><linearGradient x1="50%" y1="0%" x2="50%" y2="100%" id="sssurf-grad"><stop stop-color="#1A6944" stop-opacity="1" offset="0%"></stop><stop stop-color="#035936" stop-opacity="1" offset="100%"></stop></linearGradient></defs><g fill="url(#sssurf-grad)" transform="matrix(1,0,0,1,9.6998291015625,-395.98602294921875)"><path d="M-10,10C30.544871794871796,10.625,105.60897435897436,16.75,184.6153846153846,13C263.62179487179486,9.25,292.3076923076923,-8.833333333333334,369.2307692307692,-8C446.15384615384613,-7.166666666666667,476.9230769230769,16.791666666666668,553.8461538461538,17C630.7692307692307,17.208333333333332,661.5384615384615,-8.666666666666666,738.4615384615385,-7C815.3846153846154,-5.333333333333334,846.1538461538462,23.958333333333332,923.0769230769231,25C1000,26.041666666666668,1030.7692307692307,-2,1107.6923076923076,-2C1184.6153846153845,-2,1215.3846153846155,23.958333333333332,1292.3076923076924,25C1369.2307692307693,26.041666666666668,1400,2.375,1476.923076923077,3C1553.8461538461538,3.625,1584.6153846153845,27.375,1661.5384615384614,28C1738.4615384615383,28.625,1769.2307692307693,4.75,1846.1538461538462,6C1923.076923076923,7.25,1953.8461538461538,33.166666666666664,2030.7692307692307,34C2107.6923076923076,34.833333333333336,2138.461538461538,8.541666666666666,2215.3846153846152,10C2292.3076923076924,11.458333333333334,2309.455128205128,-40.25,2400,41C2490.544871794872,122.25,3254.1666666666665,221.04166666666669,2650,400C2045.8333333333335,578.9583333333333,156.25,795.8333333333334,-500,900" transform="matrix(1,0,0,1,0,150)" opacity="0.05"></path><path d="M-10,10C30.544871794871796,10.625,105.60897435897436,16.75,184.6153846153846,13C263.62179487179486,9.25,292.3076923076923,-8.833333333333334,369.2307692307692,-8C446.15384615384613,-7.166666666666667,476.9230769230769,16.791666666666668,553.8461538461538,17C630.7692307692307,17.208333333333332,661.5384615384615,-8.666666666666666,738.4615384615385,-7C815.3846153846154,-5.333333333333334,846.1538461538462,23.958333333333332,923.0769230769231,25C1000,26.041666666666668,1030.7692307692307,-2,1107.6923076923076,-2C1184.6153846153845,-2,1215.3846153846155,23.958333333333332,1292.3076923076924,25C1369.2307692307693,26.041666666666668,1400,2.375,1476.923076923077,3C1553.8461538461538,3.625,1584.6153846153845,27.375,1661.5384615384614,28C1738.4615384615383,28.625,1769.2307692307693,4.75,1846.1538461538462,6C1923.076923076923,7.25,1953.8461538461538,33.166666666666664,2030.7692307692307,34C2107.6923076923076,34.833333333333336,2138.461538461538,8.541666666666666,2215.3846153846152,10C2292.3076923076924,11.458333333333334,2309.455128205128,-40.25,2400,41C2490.544871794872,122.25,3254.1666666666665,221.04166666666669,2650,400C2045.8333333333335,578.9583333333333,156.25,795.8333333333334,-500,900" transform="matrix(1,0,0,1,0,300)" opacity="0.17"></path><path d="M-10,10C30.544871794871796,10.625,105.60897435897436,16.75,184.6153846153846,13C263.62179487179486,9.25,292.3076923076923,-8.833333333333334,369.2307692307692,-8C446.15384615384613,-7.166666666666667,476.9230769230769,16.791666666666668,553.8461538461538,17C630.7692307692307,17.208333333333332,661.5384615384615,-8.666666666666666,738.4615384615385,-7C815.3846153846154,-5.333333333333334,846.1538461538462,23.958333333333332,923.0769230769231,25C1000,26.041666666666668,1030.7692307692307,-2,1107.6923076923076,-2C1184.6153846153845,-2,1215.3846153846155,23.958333333333332,1292.3076923076924,25C1369.2307692307693,26.041666666666668,1400,2.375,1476.923076923077,3C1553.8461538461538,3.625,1584.6153846153845,27.375,1661.5384615384614,28C1738.4615384615383,28.625,1769.2307692307693,4.75,1846.1538461538462,6C1923.076923076923,7.25,1953.8461538461538,33.166666666666664,2030.7692307692307,34C2107.6923076923076,34.833333333333336,2138.461538461538,8.541666666666666,2215.3846153846152,10C2292.3076923076924,11.458333333333334,2309.455128205128,-40.25,2400,41C2490.544871794872,122.25,3254.1666666666665,221.04166666666669,2650,400C2045.8333333333335,578.9583333333333,156.25,795.8333333333334,-500,900" transform="matrix(1,0,0,1,0,450)" opacity="0.29"></path><path d="M-10,10C30.544871794871796,10.625,105.60897435897436,16.75,184.6153846153846,13C263.62179487179486,9.25,292.3076923076923,-8.833333333333334,369.2307692307692,-8C446.15384615384613,-7.166666666666667,476.9230769230769,16.791666666666668,553.8461538461538,17C630.7692307692307,17.208333333333332,661.5384615384615,-8.666666666666666,738.4615384615385,-7C815.3846153846154,-5.333333333333334,846.1538461538462,23.958333333333332,923.0769230769231,25C1000,26.041666666666668,1030.7692307692307,-2,1107.6923076923076,-2C1184.6153846153845,-2,1215.3846153846155,23.958333333333332,1292.3076923076924,25C1369.2307692307693,26.041666666666668,1400,2.375,1476.923076923077,3C1553.8461538461538,3.625,1584.6153846153845,27.375,1661.5384615384614,28C1738.4615384615383,28.625,1769.2307692307693,4.75,1846.1538461538462,6C1923.076923076923,7.25,1953.8461538461538,33.166666666666664,2030.7692307692307,34C2107.6923076923076,34.833333333333336,2138.461538461538,8.541666666666666,2215.3846153846152,10C2292.3076923076924,11.458333333333334,2309.455128205128,-40.25,2400,41C2490.544871794872,122.25,3254.1666666666665,221.04166666666669,2650,400C2045.8333333333335,578.9583333333333,156.25,795.8333333333334,-500,900" transform="matrix(1,0,0,1,0,600)" opacity="0.41"></path><path d="M-10,10C30.544871794871796,10.625,105.60897435897436,16.75,184.6153846153846,13C263.62179487179486,9.25,292.3076923076923,-8.833333333333334,369.2307692307692,-8C446.15384615384613,-7.166666666666667,476.9230769230769,16.791666666666668,553.8461538461538,17C630.7692307692307,17.208333333333332,661.5384615384615,-8.666666666666666,738.4615384615385,-7C815.3846153846154,-5.333333333333334,846.1538461538462,23.958333333333332,923.0769230769231,25C1000,26.041666666666668,1030.7692307692307,-2,1107.6923076923076,-2C1184.6153846153845,-2,1215.3846153846155,23.958333333333332,1292.3076923076924,25C1369.2307692307693,26.041666666666668,1400,2.375,1476.923076923077,3C1553.8461538461538,3.625,1584.6153846153845,27.375,1661.5384615384614,28C1738.4615384615383,28.625,1769.2307692307693,4.75,1846.1538461538462,6C1923.076923076923,7.25,1953.8461538461538,33.166666666666664,2030.7692307692307,34C2107.6923076923076,34.833333333333336,2138.461538461538,8.541666666666666,2215.3846153846152,10C2292.3076923076924,11.458333333333334,2309.455128205128,-40.25,2400,41C2490.544871794872,122.25,3254.1666666666665,221.04166666666669,2650,400C2045.8333333333335,578.9583333333333,156.25,795.8333333333334,-500,900" transform="matrix(1,0,0,1,0,750)" opacity="0.53"></path><path d="M-10,10C30.544871794871796,10.625,105.60897435897436,16.75,184.6153846153846,13C263.62179487179486,9.25,292.3076923076923,-8.833333333333334,369.2307692307692,-8C446.15384615384613,-7.166666666666667,476.9230769230769,16.791666666666668,553.8461538461538,17C630.7692307692307,17.208333333333332,661.5384615384615,-8.666666666666666,738.4615384615385,-7C815.3846153846154,-5.333333333333334,846.1538461538462,23.958333333333332,923.0769230769231,25C1000,26.041666666666668,1030.7692307692307,-2,1107.6923076923076,-2C1184.6153846153845,-2,1215.3846153846155,23.958333333333332,1292.3076923076924,25C1369.2307692307693,26.041666666666668,1400,2.375,1476.923076923077,3C1553.8461538461538,3.625,1584.6153846153845,27.375,1661.5384615384614,28C1738.4615384615383,28.625,1769.2307692307693,4.75,1846.1538461538462,6C1923.076923076923,7.25,1953.8461538461538,33.166666666666664,2030.7692307692307,34C2107.6923076923076,34.833333333333336,2138.461538461538,8.541666666666666,2215.3846153846152,10C2292.3076923076924,11.458333333333334,2309.455128205128,-40.25,2400,41C2490.544871794872,122.25,3254.1666666666665,221.04166666666669,2650,400C2045.8333333333335,578.9583333333333,156.25,795.8333333333334,-500,900" transform="matrix(1,0,0,1,0,900)" opacity="0.64"></path><path d="M-10,10C30.544871794871796,10.625,105.60897435897436,16.75,184.6153846153846,13C263.62179487179486,9.25,292.3076923076923,-8.833333333333334,369.2307692307692,-8C446.15384615384613,-7.166666666666667,476.9230769230769,16.791666666666668,553.8461538461538,17C630.7692307692307,17.208333333333332,661.5384615384615,-8.666666666666666,738.4615384615385,-7C815.3846153846154,-5.333333333333334,846.1538461538462,23.958333333333332,923.0769230769231,25C1000,26.041666666666668,1030.7692307692307,-2,1107.6923076923076,-2C1184.6153846153845,-2,1215.3846153846155,23.958333333333332,1292.3076923076924,25C1369.2307692307693,26.041666666666668,1400,2.375,1476.923076923077,3C1553.8461538461538,3.625,1584.6153846153845,27.375,1661.5384615384614,28C1738.4615384615383,28.625,1769.2307692307693,4.75,1846.1538461538462,6C1923.076923076923,7.25,1953.8461538461538,33.166666666666664,2030.7692307692307,34C2107.6923076923076,34.833333333333336,2138.461538461538,8.541666666666666,2215.3846153846152,10C2292.3076923076924,11.458333333333334,2309.455128205128,-40.25,2400,41C2490.544871794872,122.25,3254.1666666666665,221.04166666666669,2650,400C2045.8333333333335,578.9583333333333,156.25,795.8333333333334,-500,900" transform="matrix(1,0,0,1,0,1050)" opacity="0.76"></path><path d="M-10,10C30.544871794871796,10.625,105.60897435897436,16.75,184.6153846153846,13C263.62179487179486,9.25,292.3076923076923,-8.833333333333334,369.2307692307692,-8C446.15384615384613,-7.166666666666667,476.9230769230769,16.791666666666668,553.8461538461538,17C630.7692307692307,17.208333333333332,661.5384615384615,-8.666666666666666,738.4615384615385,-7C815.3846153846154,-5.333333333333334,846.1538461538462,23.958333333333332,923.0769230769231,25C1000,26.041666666666668,1030.7692307692307,-2,1107.6923076923076,-2C1184.6153846153845,-2,1215.3846153846155,23.958333333333332,1292.3076923076924,25C1369.2307692307693,26.041666666666668,1400,2.375,1476.923076923077,3C1553.8461538461538,3.625,1584.6153846153845,27.375,1661.5384615384614,28C1738.4615384615383,28.625,1769.2307692307693,4.75,1846.1538461538462,6C1923.076923076923,7.25,1953.8461538461538,33.166666666666664,2030.7692307692307,34C2107.6923076923076,34.833333333333336,2138.461538461538,8.541666666666666,2215.3846153846152,10C2292.3076923076924,11.458333333333334,2309.455128205128,-40.25,2400,41C2490.544871794872,122.25,3254.1666666666665,221.04166666666669,2650,400C2045.8333333333335,578.9583333333333,156.25,795.8333333333334,-500,900" transform="matrix(1,0,0,1,0,1200)" opacity="0.88"></path><path d="M-10,10C30.544871794871796,10.625,105.60897435897436,16.75,184.6153846153846,13C263.62179487179486,9.25,292.3076923076923,-8.833333333333334,369.2307692307692,-8C446.15384615384613,-7.166666666666667,476.9230769230769,16.791666666666668,553.8461538461538,17C630.7692307692307,17.208333333333332,661.5384615384615,-8.666666666666666,738.4615384615385,-7C815.3846153846154,-5.333333333333334,846.1538461538462,23.958333333333332,923.0769230769231,25C1000,26.041666666666668,1030.7692307692307,-2,1107.6923076923076,-2C1184.6153846153845,-2,1215.3846153846155,23.958333333333332,1292.3076923076924,25C1369.2307692307693,26.041666666666668,1400,2.375,1476.923076923077,3C1553.8461538461538,3.625,1584.6153846153845,27.375,1661.5384615384614,28C1738.4615384615383,28.625,1769.2307692307693,4.75,1846.1538461538462,6C1923.076923076923,7.25,1953.8461538461538,33.166666666666664,2030.7692307692307,34C2107.6923076923076,34.833333333333336,2138.461538461538,8.541666666666666,2215.3846153846152,10C2292.3076923076924,11.458333333333334,2309.455128205128,-40.25,2400,41C2490.544871794872,122.25,3254.1666666666665,221.04166666666669,2650,400C2045.8333333333335,578.9583333333333,156.25,795.8333333333334,-500,900" transform="matrix(1,0,0,1,0,1350)" opacity="1.00"></path></g></svg>