<svg xmlns="http://www.w3.org/2000/svg" version="1.1" xmlns:xlink="http://www.w3.org/1999/xlink" xmlns:svgjs="http://svgjs.dev/svgjs" viewBox="0 0 800 800" preserveAspectRatio="xMidYMid slice"><defs><pattern id="pppixelate-pattern" width="20" height="20" patternUnits="userSpaceOnUse" patternTransform="translate(135 0) scale(10.1) rotate(0)" shape-rendering="crispEdges">
    <rect width="1" height="1" x="18" y="0" fill="hsla(89, 24%, 78%, 1.00)"></rect><rect width="1" height="1" x="19" y="0" fill="hsla(89, 24%, 78%, 1.00)"></rect><rect width="1" height="1" x="7" y="1" fill="hsl(0, 0%, 90%)"></rect><rect width="1" height="1" x="8" y="1" fill="hsl(0, 0%, 90%)"></rect><rect width="1" height="1" x="18" y="1" fill="hsla(89, 24%, 78%, 1.00)"></rect><rect width="1" height="1" x="19" y="1" fill="hsla(89, 24%, 78%, 1.00)"></rect><rect width="1" height="1" x="4" y="2" fill="hsla(89, 24%, 78%, 1.00)"></rect><rect width="1" height="1" x="6" y="2" fill="hsl(0, 0%, 90%)"></rect><rect width="1" height="1" x="7" y="2" fill="hsl(0, 0%, 90%)"></rect><rect width="1" height="1" x="8" y="2" fill="hsl(0, 0%, 90%)"></rect><rect width="1" height="1" x="17" y="2" fill="hsl(0, 0%, 90%)"></rect><rect width="1" height="1" x="18" y="2" fill="hsl(0, 0%, 90%)"></rect><rect width="1" height="1" x="19" y="2" fill="hsl(0, 0%, 90%)"></rect><rect width="1" height="1" x="2" y="3" fill="hsla(89, 24%, 78%, 1.00)"></rect><rect width="1" height="1" x="3" y="3" fill="hsla(89, 24%, 78%, 1.00)"></rect><rect width="1" height="1" x="4" y="3" fill="hsla(89, 24%, 78%, 1.00)"></rect><rect width="1" height="1" x="5" y="3" fill="hsla(89, 24%, 78%, 1.00)"></rect><rect width="1" height="1" x="6" y="3" fill="hsla(89, 24%, 78%, 1.00)"></rect><rect width="1" height="1" x="3" y="4" fill="hsla(89, 24%, 78%, 1.00)"></rect><rect width="1" height="1" x="4" y="4" fill="hsla(89, 24%, 78%, 1.00)"></rect><rect width="1" height="1" x="5" y="4" fill="hsla(89, 24%, 78%, 1.00)"></rect><rect width="1" height="1" x="4" y="5" fill="hsla(89, 24%, 78%, 1.00)"></rect><rect width="1" height="1" x="6" y="5" fill="hsl(0, 0%, 90%)"></rect><rect width="1" height="1" x="7" y="5" fill="hsl(0, 0%, 90%)"></rect><rect width="1" height="1" x="5" y="6" fill="hsl(0, 0%, 90%)"></rect><rect width="1" height="1" x="8" y="6" fill="hsl(0, 0%, 90%)"></rect><rect width="1" height="1" x="10" y="6" fill="hsla(89, 24%, 78%, 1.00)"></rect><rect width="1" height="1" x="14" y="6" fill="hsla(89, 24%, 78%, 1.00)"></rect><rect width="1" height="1" x="4" y="7" fill="hsl(0, 0%, 90%)"></rect><rect width="1" height="1" x="7" y="7" fill="hsl(0, 0%, 90%)"></rect><rect width="1" height="1" x="8" y="7" fill="hsl(0, 0%, 90%)"></rect><rect width="1" height="1" x="8" y="8" fill="hsl(0, 0%, 90%)"></rect><rect width="1" height="1" x="14" y="8" fill="hsl(0, 0%, 90%)"></rect><rect width="1" height="1" x="15" y="8" fill="hsl(0, 0%, 90%)"></rect><rect width="1" height="1" x="16" y="8" fill="hsl(0, 0%, 90%)"></rect><rect width="1" height="1" x="10" y="9" fill="hsl(0, 0%, 90%)"></rect><rect width="1" height="1" x="10" y="11" fill="hsl(0, 0%, 90%)"></rect><rect width="1" height="1" x="18" y="11" fill="hsl(0, 0%, 90%)"></rect><rect width="1" height="1" x="3" y="12" fill="hsla(89, 24%, 78%, 1.00)"></rect><rect width="1" height="1" x="18" y="12" fill="hsl(0, 0%, 90%)"></rect><rect width="1" height="1" x="8" y="13" fill="hsl(0, 0%, 90%)"></rect><rect width="1" height="1" x="10" y="13" fill="hsl(0, 0%, 90%)"></rect><rect width="1" height="1" x="18" y="13" fill="hsl(0, 0%, 90%)"></rect><rect width="1" height="1" x="1" y="14" fill="hsla(89, 24%, 78%, 1.00)"></rect><rect width="1" height="1" x="2" y="14" fill="hsl(0, 0%, 90%)"></rect><rect width="1" height="1" x="5" y="14" fill="hsla(89, 24%, 78%, 1.00)"></rect><rect width="1" height="1" x="8" y="14" fill="hsl(0, 0%, 90%)"></rect><rect width="1" height="1" x="9" y="14" fill="hsl(0, 0%, 90%)"></rect><rect width="1" height="1" x="13" y="14" fill="hsla(89, 24%, 78%, 1.00)"></rect><rect width="1" height="1" x="18" y="14" fill="hsl(0, 0%, 90%)"></rect><rect width="1" height="1" x="8" y="15" fill="hsl(0, 0%, 90%)"></rect><rect width="1" height="1" x="7" y="16" fill="hsla(89, 24%, 78%, 1.00)"></rect><rect width="1" height="1" x="8" y="16" fill="hsl(0, 0%, 90%)"></rect><rect width="1" height="1" x="13" y="16" fill="hsla(89, 24%, 78%, 1.00)"></rect><rect width="1" height="1" x="4" y="17" fill="hsla(89, 24%, 78%, 1.00)"></rect><rect width="1" height="1" x="6" y="17" fill="hsla(89, 24%, 78%, 1.00)"></rect><rect width="1" height="1" x="7" y="17" fill="hsla(89, 24%, 78%, 1.00)"></rect><rect width="1" height="1" x="6" y="18" fill="hsla(89, 24%, 78%, 1.00)"></rect><rect width="1" height="1" x="7" y="18" fill="hsla(89, 24%, 78%, 1.00)"></rect><rect width="1" height="1" x="1" y="19" fill="hsl(0, 0%, 90%)"></rect><rect width="1" height="1" x="4" y="19" fill="hsl(0, 0%, 90%)"></rect>
  </pattern></defs><rect width="100%" height="100%" fill="url(#pppixelate-pattern)"></rect></svg>