<svg xmlns="http://www.w3.org/2000/svg" version="1.1" xmlns:xlink="http://www.w3.org/1999/xlink" xmlns:svgjs="http://svgjs.dev/svgjs" viewBox="0 0 2400 800"><defs><linearGradient x1="50%" y1="0%" x2="50%" y2="100%" id="sssurf-grad"><stop stop-color="#358940" stop-opacity="1" offset="0%"></stop><stop stop-color="#B4CEBC" stop-opacity="1" offset="100%"></stop></linearGradient></defs><g fill="url(#sssurf-grad)" transform="matrix(1,0,0,1,4.3314208984375,-12.908981323242188)"><path d="M-10,10C92.08333333333334,12.5,277.9166666666667,29.291666666666664,480,22C682.0833333333333,14.708333333333334,760,-28.125,960,-25C1160,-21.875,1240,34.916666666666664,1440,37C1640,39.083333333333336,1720,-11.875,1920,-15C2120,-18.125,2247.9166666666665,-64.45833333333334,2400,22C2552.0833333333335,108.45833333333334,3254.1666666666665,217.08333333333331,2650,400C2045.8333333333335,582.9166666666667,156.25,795.8333333333334,-500,900" transform="matrix(1,0,0,1,0,108)" opacity="0.05"></path><path d="M-10,10C92.08333333333334,12.5,277.9166666666667,29.291666666666664,480,22C682.0833333333333,14.708333333333334,760,-28.125,960,-25C1160,-21.875,1240,34.916666666666664,1440,37C1640,39.083333333333336,1720,-11.875,1920,-15C2120,-18.125,2247.9166666666665,-64.45833333333334,2400,22C2552.0833333333335,108.45833333333334,3254.1666666666665,217.08333333333331,2650,400C2045.8333333333335,582.9166666666667,156.25,795.8333333333334,-500,900" transform="matrix(1,0,0,1,0,216)" opacity="0.24"></path><path d="M-10,10C92.08333333333334,12.5,277.9166666666667,29.291666666666664,480,22C682.0833333333333,14.708333333333334,760,-28.125,960,-25C1160,-21.875,1240,34.916666666666664,1440,37C1640,39.083333333333336,1720,-11.875,1920,-15C2120,-18.125,2247.9166666666665,-64.45833333333334,2400,22C2552.0833333333335,108.45833333333334,3254.1666666666665,217.08333333333331,2650,400C2045.8333333333335,582.9166666666667,156.25,795.8333333333334,-500,900" transform="matrix(1,0,0,1,0,324)" opacity="0.43"></path><path d="M-10,10C92.08333333333334,12.5,277.9166666666667,29.291666666666664,480,22C682.0833333333333,14.708333333333334,760,-28.125,960,-25C1160,-21.875,1240,34.916666666666664,1440,37C1640,39.083333333333336,1720,-11.875,1920,-15C2120,-18.125,2247.9166666666665,-64.45833333333334,2400,22C2552.0833333333335,108.45833333333334,3254.1666666666665,217.08333333333331,2650,400C2045.8333333333335,582.9166666666667,156.25,795.8333333333334,-500,900" transform="matrix(1,0,0,1,0,432)" opacity="0.62"></path><path d="M-10,10C92.08333333333334,12.5,277.9166666666667,29.291666666666664,480,22C682.0833333333333,14.708333333333334,760,-28.125,960,-25C1160,-21.875,1240,34.916666666666664,1440,37C1640,39.083333333333336,1720,-11.875,1920,-15C2120,-18.125,2247.9166666666665,-64.45833333333334,2400,22C2552.0833333333335,108.45833333333334,3254.1666666666665,217.08333333333331,2650,400C2045.8333333333335,582.9166666666667,156.25,795.8333333333334,-500,900" transform="matrix(1,0,0,1,0,540)" opacity="0.81"></path><path d="M-10,10C92.08333333333334,12.5,277.9166666666667,29.291666666666664,480,22C682.0833333333333,14.708333333333334,760,-28.125,960,-25C1160,-21.875,1240,34.916666666666664,1440,37C1640,39.083333333333336,1720,-11.875,1920,-15C2120,-18.125,2247.9166666666665,-64.45833333333334,2400,22C2552.0833333333335,108.45833333333334,3254.1666666666665,217.08333333333331,2650,400C2045.8333333333335,582.9166666666667,156.25,795.8333333333334,-500,900" transform="matrix(1,0,0,1,0,648)" opacity="1.00">
</path></g></svg>