<svg xmlns="http://www.w3.org/2000/svg" version="1.1" xmlns:xlink="http://www.w3.org/1999/xlink" xmlns:svgjs="http://svgjs.dev/svgjs" viewBox="0 0 2400 800" opacity="0.89"><defs><linearGradient x1="50%" y1="0%" x2="50%" y2="100%" id="sssurf-grad"><stop stop-color="#035936" stop-opacity="1" offset="0%"></stop><stop stop-color="#4F985A" stop-opacity="1" offset="100%"></stop></linearGradient></defs><g fill="url(#sssurf-grad)" transform="matrix(1,0,0,1,-1.936279296875,-69.4708480834961)"><path d="M-10,10C158.75,17.916666666666664,464.58333333333337,65.5,800,48C1135.4166666666665,30.5,1266.6666666666665,-76.91666666666667,1600,-74C1933.3333333333335,-71.08333333333333,2181.25,-36.75,2400,62C2618.75,160.75,3254.1666666666665,225.41666666666669,2650,400C2045.8333333333335,574.5833333333333,156.25,795.8333333333334,-500,900" transform="matrix(1,0,0,1,0,83)" opacity="0.05"></path><path d="M-10,10C158.75,17.916666666666664,464.58333333333337,65.5,800,48C1135.4166666666665,30.5,1266.6666666666665,-76.91666666666667,1600,-74C1933.3333333333335,-71.08333333333333,2181.25,-36.75,2400,62C2618.75,160.75,3254.1666666666665,225.41666666666669,2650,400C2045.8333333333335,574.5833333333333,156.25,795.8333333333334,-500,900" transform="matrix(1,0,0,1,0,166)" opacity="0.16"></path><path d="M-10,10C158.75,17.916666666666664,464.58333333333337,65.5,800,48C1135.4166666666665,30.5,1266.6666666666665,-76.91666666666667,1600,-74C1933.3333333333335,-71.08333333333333,2181.25,-36.75,2400,62C2618.75,160.75,3254.1666666666665,225.41666666666669,2650,400C2045.8333333333335,574.5833333333333,156.25,795.8333333333334,-500,900" transform="matrix(1,0,0,1,0,249)" opacity="0.26"></path><path d="M-10,10C158.75,17.916666666666664,464.58333333333337,65.5,800,48C1135.4166666666665,30.5,1266.6666666666665,-76.91666666666667,1600,-74C1933.3333333333335,-71.08333333333333,2181.25,-36.75,2400,62C2618.75,160.75,3254.1666666666665,225.41666666666669,2650,400C2045.8333333333335,574.5833333333333,156.25,795.8333333333334,-500,900" transform="matrix(1,0,0,1,0,332)" opacity="0.37"></path><path d="M-10,10C158.75,17.916666666666664,464.58333333333337,65.5,800,48C1135.4166666666665,30.5,1266.6666666666665,-76.91666666666667,1600,-74C1933.3333333333335,-71.08333333333333,2181.25,-36.75,2400,62C2618.75,160.75,3254.1666666666665,225.41666666666669,2650,400C2045.8333333333335,574.5833333333333,156.25,795.8333333333334,-500,900" transform="matrix(1,0,0,1,0,415)" opacity="0.47"></path><path d="M-10,10C158.75,17.916666666666664,464.58333333333337,65.5,800,48C1135.4166666666665,30.5,1266.6666666666665,-76.91666666666667,1600,-74C1933.3333333333335,-71.08333333333333,2181.25,-36.75,2400,62C2618.75,160.75,3254.1666666666665,225.41666666666669,2650,400C2045.8333333333335,574.5833333333333,156.25,795.8333333333334,-500,900" transform="matrix(1,0,0,1,0,498)" opacity="0.58"></path><path d="M-10,10C158.75,17.916666666666664,464.58333333333337,65.5,800,48C1135.4166666666665,30.5,1266.6666666666665,-76.91666666666667,1600,-74C1933.3333333333335,-71.08333333333333,2181.25,-36.75,2400,62C2618.75,160.75,3254.1666666666665,225.41666666666669,2650,400C2045.8333333333335,574.5833333333333,156.25,795.8333333333334,-500,900" transform="matrix(1,0,0,1,0,581)" opacity="0.68"></path><path d="M-10,10C158.75,17.916666666666664,464.58333333333337,65.5,800,48C1135.4166666666665,30.5,1266.6666666666665,-76.91666666666667,1600,-74C1933.3333333333335,-71.08333333333333,2181.25,-36.75,2400,62C2618.75,160.75,3254.1666666666665,225.41666666666669,2650,400C2045.8333333333335,574.5833333333333,156.25,795.8333333333334,-500,900" transform="matrix(1,0,0,1,0,664)" opacity="0.79"></path><path d="M-10,10C158.75,17.916666666666664,464.58333333333337,65.5,800,48C1135.4166666666665,30.5,1266.6666666666665,-76.91666666666667,1600,-74C1933.3333333333335,-71.08333333333333,2181.25,-36.75,2400,62C2618.75,160.75,3254.1666666666665,225.41666666666669,2650,400C2045.8333333333335,574.5833333333333,156.25,795.8333333333334,-500,900" transform="matrix(1,0,0,1,0,747)" opacity="0.89"></path><path d="M-10,10C158.75,17.916666666666664,464.58333333333337,65.5,800,48C1135.4166666666665,30.5,1266.6666666666665,-76.91666666666667,1600,-74C1933.3333333333335,-71.08333333333333,2181.25,-36.75,2400,62C2618.75,160.75,3254.1666666666665,225.41666666666669,2650,400C2045.8333333333335,574.5833333333333,156.25,795.8333333333334,-500,900" transform="matrix(1,0,0,1,0,830)" opacity="1.00"></path></g></svg>